<svg xmlns="http://www.w3.org/2000/svg" width="48" height="48" viewBox="0 0 240 213" version="1.1">
	<path d="M 30.557 39.223 C 28.274 42.482, 28.247 126.420, 30.525 139.482 C 32.195 149.060, 36.289 159.669, 40.858 166.263 C 48.434 177.195, 61.650 187.148, 73.985 191.210 C 79.529 193.036, 83.479 193.418, 100.500 193.774 C 123.788 194.260, 131.845 193.264, 143.127 188.506 C 157.437 182.470, 167.621 173.069, 173.890 160.105 C 175.995 155.753, 177.963 151.249, 178.265 150.096 C 178.695 148.449, 179.598 148, 182.480 148 C 188.410 148, 200.905 143.243, 207.686 138.404 C 218.300 130.830, 222.678 123.116, 223.641 110.292 C 225.050 91.535, 217.960 76.508, 204.268 69.233 C 198.297 66.061, 188.151 63, 183.606 63 L 181 63 181 51.655 C 181 41.524, 180.783 40.113, 178.970 38.473 C 177.362 37.017, 176.374 36.834, 174.220 37.591 L 171.500 38.546 171.224 54.389 C 171.035 65.223, 171.311 70.670, 172.096 71.616 C 172.740 72.392, 175.087 73, 177.439 73 C 192.520 73, 205.731 79.591, 210.408 89.447 C 214.341 97.737, 214.601 112.774, 210.937 120.068 C 206.621 128.660, 193.176 136.616, 181.173 137.682 C 177.503 138.008, 173.746 138.661, 172.824 139.133 C 171.903 139.605, 169.727 143.705, 167.989 148.245 C 162.333 163.021, 156.131 170.454, 144.108 176.862 C 133.646 182.438, 125.088 184, 105 184 C 90.770 184, 85.838 183.621, 79.728 182.058 C 65.683 178.466, 52.422 167.697, 46.013 154.679 C 40.085 142.636, 40.025 141.983, 40.012 89.473 C 39.999 37.258, 39.972 37, 34.500 37 C 33.167 37, 31.426 37.982, 30.557 39.223 M 123 85.029 C 107.591 86.844, 77.384 87.892, 65 87.041 C 54.609 86.327, 52.108 86.432, 50.175 87.663 L 47.850 89.145 48.185 114.322 L 48.521 139.500 51.605 146 C 58.101 159.689, 67.858 168.491, 79.952 171.574 C 85.266 172.929, 90.031 173.136, 106.952 172.748 C 129.894 172.222, 135.313 171.060, 145.647 164.449 C 152.467 160.087, 156.076 155.010, 159.255 145.310 C 162.040 136.811, 162.354 132.324, 162.130 104.199 L 162 87.898 158.250 86.307 C 153.757 84.400, 134.322 83.696, 123 85.029 M 173.223 87.557 C 171.089 89.051, 171 89.732, 171 104.557 C 171 118.371, 171.200 120.200, 172.891 121.891 C 175.719 124.719, 183.771 125.499, 190.360 123.584 C 197.084 121.629, 200.410 117.981, 201.930 110.890 C 203.779 102.271, 201.577 95.067, 195.731 90.608 C 190.041 86.269, 177.491 84.567, 173.223 87.557 M 181.698 96.636 C 181.314 97.019, 181 101.083, 181 105.667 L 181 114 184.929 114 C 190.131 114, 192 111.981, 192 106.363 C 192 100.831, 190.789 98.415, 187.619 97.619 C 186.281 97.283, 184.558 96.768, 183.791 96.473 C 183.023 96.179, 182.082 96.252, 181.698 96.636" stroke="none" fill="#000000" fill-rule="evenodd"/>
</svg>