<svg xmlns="http://www.w3.org/2000/svg" width="48" height="48" viewBox="0 0 239 217" version="1.1">
	<path d="M 27.557 41.223 C 25.274 44.482, 25.247 128.420, 27.525 141.482 C 29.195 151.060, 33.289 161.669, 37.858 168.263 C 45.434 179.195, 58.650 189.148, 70.985 193.210 C 76.529 195.036, 80.479 195.418, 97.500 195.774 C 120.788 196.260, 128.845 195.264, 140.127 190.506 C 154.437 184.470, 164.621 175.069, 170.890 162.105 C 172.995 157.753, 174.963 153.249, 175.265 152.096 C 175.695 150.449, 176.598 150, 179.480 150 C 185.410 150, 197.905 145.243, 204.686 140.404 C 215.300 132.830, 219.678 125.116, 220.641 112.292 C 222.050 93.535, 214.960 78.508, 201.268 71.233 C 195.297 68.061, 185.151 65, 180.606 65 L 178 65 178 53.655 C 178 43.524, 177.783 42.113, 175.970 40.473 C 174.362 39.017, 173.374 38.834, 171.220 39.591 L 168.500 40.546 168.224 56.389 C 168.035 67.223, 168.311 72.670, 169.096 73.616 C 169.740 74.392, 172.087 75, 174.439 75 C 189.520 75, 202.731 81.591, 207.408 91.447 C 211.341 99.737, 211.601 114.774, 207.937 122.068 C 203.621 130.660, 190.176 138.616, 178.173 139.682 C 174.503 140.008, 170.746 140.661, 169.824 141.133 C 168.903 141.605, 166.727 145.705, 164.989 150.245 C 159.333 165.021, 153.131 172.454, 141.108 178.862 C 130.646 184.438, 122.088 186, 102 186 C 87.770 186, 82.838 185.621, 76.728 184.058 C 62.683 180.466, 49.422 169.697, 43.013 156.679 C 37.085 144.636, 37.025 143.983, 37.012 91.473 C 36.999 39.258, 36.972 39, 31.500 39 C 30.167 39, 28.426 39.982, 27.557 41.223 M 170.223 89.557 C 168.089 91.051, 168 91.732, 168 106.557 C 168 120.371, 168.200 122.200, 169.891 123.891 C 172.719 126.719, 180.771 127.499, 187.360 125.584 C 194.084 123.629, 197.410 119.981, 198.930 112.890 C 200.779 104.271, 198.577 97.067, 192.731 92.608 C 187.041 88.269, 174.491 86.567, 170.223 89.557 M 178.698 98.636 C 178.314 99.019, 178 103.083, 178 107.667 L 178 116 181.929 116 C 187.131 116, 189 113.981, 189 108.363 C 189 102.831, 187.789 100.415, 184.619 99.619 C 183.281 99.283, 181.558 98.768, 180.791 98.473 C 180.023 98.179, 179.082 98.252, 178.698 98.636 M 114 121.133 C 101.715 122.638, 93.210 122.977, 73 122.766 L 47.500 122.500 47.166 124.857 C 46.635 128.610, 48.714 141.899, 50.973 149.195 C 55.029 162.294, 67.480 171.970, 83.094 174.159 C 93.580 175.628, 122.190 174.649, 128.416 172.608 C 138.834 169.192, 148.213 161.354, 151.879 153 C 154.643 146.703, 157.174 133.335, 156.808 126.972 L 156.500 121.622 151.500 120.330 C 144.761 118.589, 132.637 118.849, 114 121.133" stroke="none" fill="#000000" fill-rule="evenodd"/>
</svg>