<svg xmlns="http://www.w3.org/2000/svg" width="100%" height="100%" class="w-full h-full" viewBox="0 0 279 325" fill-rule="evenodd" version="1.1">
	<path d="M 24.329 21.093 C 18.629 23.284, 12.168 28.953, 9.676 33.947 C 6.849 39.615, 5.704 48.482, 6.211 60.790 C 6.791 74.869, 8.769 80.282, 15.687 86.725 C 19.967 90.711, 20.182 91.142, 18.703 92.776 C 17.827 93.744, 16.195 96.553, 15.077 99.018 C 13.078 103.425, 13.044 105.125, 13.032 200.500 L 13.020 297.500 15.383 302.500 C 18.224 308.509, 21.957 312.184, 28 314.919 C 32.436 316.927, 33.998 316.956, 138.500 316.956 C 243.002 316.956, 244.564 316.927, 249 314.919 C 255.043 312.184, 258.776 308.509, 261.617 302.500 L 263.980 297.500 263.968 200.500 C 263.956 105.125, 263.922 103.425, 261.923 99.018 C 260.805 96.553, 259.173 93.744, 258.297 92.776 C 256.818 91.142, 257.033 90.711, 261.313 86.725 C 268.231 80.282, 270.209 74.869, 270.789 60.790 C 271.296 48.482, 270.151 39.615, 267.324 33.947 C 264.775 28.838, 258.323 23.265, 252.387 21.044 C 247.006 19.030, 245.313 19.001, 138.212 19.052 C 32.179 19.103, 29.373 19.153, 24.329 21.093 M 25.337 32.514 C 18.533 36.593, 16.996 41.039, 17.022 56.566 C 17.048 72.110, 18.445 76.281, 25.098 80.684 L 29.354 83.500 138.500 83.500 L 247.646 83.500 251.911 80.677 C 258.871 76.072, 260.216 71.725, 259.824 55.110 C 259.524 42.370, 259.315 41.074, 257.017 37.725 C 255.652 35.735, 252.890 33.183, 250.881 32.053 C 247.258 30.017, 246.325 30, 138.364 30.009 L 29.500 30.019 25.337 32.514 M 28.654 97.999 C 26.406 99.972, 24.855 102.518, 24.119 105.442 C 22.544 111.697, 22.544 289.303, 24.119 295.558 C 24.855 298.482, 26.406 301.028, 28.654 303.001 L 32.070 306 138.500 306 L 244.930 306 248.346 303.001 C 250.594 301.028, 252.145 298.482, 252.881 295.558 C 254.456 289.303, 254.456 111.697, 252.881 105.442 C 252.145 102.518, 250.594 99.972, 248.346 97.999 L 244.930 95 138.500 95 L 32.070 95 28.654 97.999 M 57.990 142.250 C 56.172 143.488, 53.743 145.770, 52.592 147.323 C 50.534 150.100, 50.500 150.975, 50.500 200.500 C 50.500 250.025, 50.534 250.900, 52.592 253.677 C 53.743 255.230, 56.172 257.512, 57.990 258.750 L 61.296 261 138.500 261 L 215.704 261 219.010 258.750 C 220.828 257.512, 223.257 255.230, 224.408 253.677 C 226.466 250.900, 226.500 250.025, 226.500 200.500 C 226.500 150.975, 226.466 150.100, 224.408 147.323 C 223.257 145.770, 220.828 143.488, 219.010 142.250 L 215.704 140 138.500 140 L 61.296 140 57.990 142.250 M 64.235 151.027 C 62.990 151.532, 61.514 153.147, 60.956 154.615 C 60.309 156.318, 60.042 173.515, 60.221 202.107 C 60.479 243.586, 60.633 247.063, 62.286 248.715 C 63.968 250.396, 68.394 250.500, 138.500 250.500 C 208.618 250.500, 213.032 250.397, 214.714 248.714 C 216.377 247.051, 216.500 243.738, 216.500 200.500 C 216.500 157.265, 216.377 153.949, 214.715 152.286 C 213.037 150.608, 208.517 150.488, 139.715 150.303 C 96.966 150.189, 65.558 150.490, 64.235 151.027 M 125 168.389 C 111.156 171.453, 99.957 181.969, 96.431 195.214 C 93.607 205.822, 94.867 211.120, 102.403 220.317 C 107.738 226.827, 113.560 229.435, 121.016 228.656 C 125.577 228.179, 127.803 228.467, 131.213 229.976 C 148.503 237.624, 172.704 230.422, 179.619 215.571 C 182.509 209.365, 182.539 207.955, 179.955 199.588 C 176.719 189.114, 169.969 182.791, 158.444 179.441 C 155.257 178.514, 151.541 176.728, 150.185 175.471 C 146.897 172.422, 138.340 168.301, 134 167.676 C 132.075 167.399, 128.025 167.720, 125 168.389 M 125.312 179.348 C 116.077 181.888, 108.075 190.424, 106.420 199.500 L 105.690 203.500 109.800 199.793 C 114.249 195.781, 118.684 193.308, 126.500 190.480 C 136.278 186.943, 140.779 181.558, 136.066 179.035 C 133.687 177.762, 130.769 177.847, 125.312 179.348 M 156.581 195.103 C 156.219 197.832, 156.191 200.501, 156.520 201.033 C 157.179 202.098, 164.913 202.354, 167.418 201.393 C 168.288 201.059, 169 200.247, 169 199.589 C 169 197.879, 162.981 192.304, 159.870 191.132 C 157.291 190.160, 157.226 190.239, 156.581 195.103 M 140.208 195.550 C 137.847 197.418, 134.022 199.449, 131.708 200.064 C 124.686 201.930, 118.001 206.139, 114.902 210.642 C 113.306 212.962, 112 215.062, 112 215.309 C 112 216.260, 118.277 218.296, 120.973 218.220 C 127.918 218.022, 139.211 209.231, 143.452 200.721 C 145.950 195.707, 146.737 191.924, 145.250 192.077 C 144.838 192.120, 142.569 193.682, 140.208 195.550 M 144.848 217.050 L 140.195 221.946 143.823 222.627 C 147.849 223.382, 157.167 221.761, 161.648 219.526 C 163.245 218.729, 165.752 216.822, 167.218 215.288 L 169.884 212.500 159.692 212.327 L 149.500 212.154 144.848 217.050"/>
</svg>