<svg xmlns="http://www.w3.org/2000/svg" width="800" height="800" viewBox="144 144 512 512">
  <path d="M565.31 278.66v-59.715A55.169 55.169 0 0 0 549.15 180a55.166 55.166 0 0 0-38.945-16.16h-283.39A55.176 55.176 0 0 0 187.87 180a55.145 55.145 0 0 0-16.156 38.945v7.871a39.4 39.4 0 0 0 39.359 39.363h23.617v12.484l-68.543 68.54a7.877 7.877 0 0 0-2.309 5.565v275.52c.004 4.344 3.528 7.872 7.875 7.872h456.58a7.875 7.875 0 0 0 7.871-7.872v-275.52a7.89 7.89 0 0 0-2.304-5.566zm-377.86-51.844v-7.871a39.409 39.409 0 0 1 39.359-39.359h244.88a54.943 54.943 0 0 0-16.594 39.359v7.871a39.176 39.176 0 0 0 7.894 23.617H211.06a23.65 23.65 0 0 1-23.617-23.617zm-7.871 133.82h188.93v-15.742h-177.8l57.41-57.41a7.867 7.867 0 0 0 2.305-5.566v-15.742h244.03a39.172 39.172 0 0 0 23.617-7.891v20.375l-68.543 68.543v-.004a7.874 7.874 0 0 0-2.305 5.566v267.65h-267.65zm440.83 259.78h-157.44v-264.39l68.543-68.543a7.883 7.883 0 0 0 2.305-5.566V218.94a23.617 23.617 0 1 0-47.235 0v7.87a7.874 7.874 0 1 0 15.746 0v-7.87a7.87 7.87 0 0 1 7.87-7.872 7.87 7.87 0 0 1 7.872 7.872v7.87a23.614 23.614 0 0 1-35.422 20.454 23.615 23.615 0 0 1-11.81-20.453v-7.871c0-14.062 7.5-27.055 19.68-34.086a39.357 39.357 0 0 1 39.36 0 39.354 39.354 0 0 1 19.68 34.086v62.977c0 2.09.828 4.09 2.305 5.566l68.543 68.543z"/>
  <path d="M401.63 477.09a57.63 57.63 0 0 0-30.492-15.992 57.972 57.972 0 0 0 2.887-53.672 57.972 57.972 0 0 0-42.438-32.98 57.964 57.964 0 0 0-51.297 16.051l-23.617 23.617a57.932 57.932 0 0 0-15.621 28.449 57.935 57.935 0 0 0 2.136 32.387 64.426 64.426 0 0 0-2.257 2.137l-23.617 23.617a57.954 57.954 0 0 0-15.172 55.254 57.96 57.96 0 0 0 39.723 41.297 57.958 57.958 0 0 0 55.8-13.02 58.007 58.007 0 0 0 40.485 15.39 58.021 58.021 0 0 0 39.863-16.937l23.617-23.617a58.033 58.033 0 0 0 0-81.98zm-70.332 10.641a42.224 42.224 0 0 1 49.77-6.613l-24.641 36.96h-16.566a57.925 57.925 0 0 0-8.562-30.348zm32.207-56.242a41.937 41.937 0 0 1-11.898 29.363 57.63 57.63 0 0 0-30.328 14.688 57.494 57.494 0 0 0-24.121-13.359l4.719-7.078h19.402a7.873 7.873 0 0 0 6.836-3.965l26.23-45.902a41.902 41.902 0 0 1 9.16 26.254zm-95.699-6.242 23.617-23.617a42.247 42.247 0 0 1 50.758-6.84l-25.469 44.57h-19.047a7.879 7.879 0 0 0-6.55 3.504l-11.552 17.328h-.004a58.066 58.066 0 0 0-22.75 5.648 42.211 42.211 0 0 1 10.996-40.594zm-39.359 86.594 23.617-23.617a42.268 42.268 0 0 1 24.223-11.973 42.321 42.321 0 0 1 26.527 5.14l-25.461 44.56h-19.051a7.866 7.866 0 0 0-6.547 3.507l-26.05 39.07a42.27 42.27 0 0 1-9.556-28.87 42.296 42.296 0 0 1 12.297-27.82zm9.437 66.809 24.633-36.953h19.402a7.877 7.877 0 0 0 6.836-3.969l26.23-45.898h-.004a42.28 42.28 0 0 1-3.202 56.109l-23.617 23.617v-.004c-6.485 6.469-14.891 10.656-23.957 11.934s-18.305-.418-26.32-4.84zm152.61-30.707-23.617 23.617v-.008a42.278 42.278 0 0 1-58.039 1.586l14.067-14.066h.003a57.568 57.568 0 0 0 14.773-25.246h22.953a7.873 7.873 0 0 0 6.551-3.508l26.047-39.07h.004a42.27 42.27 0 0 1 9.555 28.871 42.29 42.29 0 0 1-12.297 27.82zM384.25 344.89h31.488v15.742H384.25z"/>
</svg>