<svg xmlns="http://www.w3.org/2000/svg" width="86" height="86" fill="#8b5cf6" fill-rule="evenodd" style="margin-bottom:8px;display:block;margin-left:auto;margin-right:auto" viewBox="0 0 341 371">
  <path d="M213.075 27.087C185.896 32.42 161.888 52.692 147.45 82.5c-10.013 20.673-14.112 41.13-13.193 65.84.977 26.268 8.359 49.811 21.965 70.048 4.941 7.349 20.607 23.277 26.55 26.993 14.334 8.964 25.253 12.625 39.78 13.338 24.303 1.193 44.557-7.003 63.115-25.538 19.098-19.075 31.119-46.31 34.331-77.783 2.398-23.496-2.883-53.223-13.079-73.621-11.062-22.127-29.464-40.846-48.419-49.249-13.091-5.803-32.021-8.071-45.425-5.441m-2.674 23.33c-13.511 4.705-24.808 13.097-33.722 25.051-25.849 34.665-28.448 85.487-6.378 124.703 9.867 17.532 26.095 31.092 42.241 35.298 9.387 2.445 23.143 2.022 32.11-.988 33.507-11.248 56.215-52.005 54.034-96.981-.735-15.156-2.816-25.253-7.905-38.365-9.106-23.463-25.704-41.15-45.349-48.325-4.375-1.598-8.819-2.258-16.932-2.515-9.668-.307-11.86-.05-18.099 2.122m3.725 25.333c-7.125 14.115-10.088 30.31-8.2 44.822 2.146 16.487 5.319 24.458 17.566 44.123 2.463 3.953 3.059 6.115 3.367 12.195.453 8.965-.821 13.597-5.388 19.58l-3.472 4.548 6.743 8.607 6.743 8.607 4.308-4.866c9.979-11.272 14.676-26.93 12.536-41.791-1.09-7.56-5.838-19.331-9.309-23.075-2.556-2.758-8.433-14.947-10.123-21-2.298-8.226-1.833-25.676.896-33.604 1.25-3.632 2.919-7.457 3.708-8.5s1.45-2.38 1.467-2.971c.026-.861-7.531-6.185-16.619-11.707-.905-.55-2.16.946-4.223 5.032M103 124.705c-28.164 4.869-53.049 26.296-62.479 53.795-9.564 27.888-8.038 58.156 4.44 88.119 12.401 29.776 35.352 54.939 62.65 68.685 23.966 12.069 51.806 14.07 73.552 5.286 17.599-7.108 33.282-21.675 42.092-39.097 2.704-5.347 7.092-17.94 8.069-23.158l.592-3.165-9.708-1.71c-5.339-.94-10.08-1.766-10.534-1.835s-1.832 3.25-3.061 7.375c-8.294 27.841-27.486 43.6-54.538 44.784-14.865.65-25.007-1.849-39.845-9.818-23.538-12.642-43.946-37.698-52.507-64.466-4.586-14.34-5.211-18.432-5.197-34 .012-12.554.382-16.282 2.272-22.862 5.631-19.611 16.156-33.196 31.787-41.029C96.249 148.77 105.942 146 110.21 146c2.617 0 2.79-.264 2.783-4.25-.004-2.338-.294-7.287-.645-11l-.637-6.75-3.106.136c-1.708.075-4.23.331-5.605.569M89.018 178.75c.039 5.839 2.991 23.051 5.017 29.25 7.174 21.953 23.167 42.597 41.135 53.097 14.122 8.252 20.494 20.41 19.687 37.563l-.357 7.596 9.448 3.375c5.196 1.855 9.76 3.035 10.143 2.621 1.202-1.3 2.909-11.121 2.909-16.736 0-13.387-6.489-30.89-15.168-40.914-2.332-2.694-8.536-7.685-13.786-11.092-22.164-14.381-34.742-34.848-36.725-59.76l-.617-7.75H89z"/>
</svg>