<svg xmlns="http://www.w3.org/2000/svg" width="100%" height="100%" class="w-full h-full" viewBox="0 0 300 300" version="1.1">
	<path d="M 73.500 40.918 C 69.184 41.980, 66.698 43.768, 63.933 47.799 C 61.652 51.123, 61.481 52.319, 61.196 66.922 C 60.908 81.615, 61.024 82.762, 63.240 87.113 L 65.589 91.725 60.544 94.523 C 52.996 98.710, 41.146 111.208, 36.862 119.500 C 28.904 134.906, 29.500 125.107, 29.500 240.500 L 29.500 343.500 31.767 349.104 C 37.042 362.141, 47.990 372.764, 60.662 377.139 L 67.500 379.500 167.500 379.500 L 267.500 379.500 275 376.736 C 288.360 371.812, 299.051 360.988, 303.691 347.687 C 305.391 342.813, 305.500 336.323, 305.500 240 C 305.500 142.438, 305.410 137.235, 303.627 132 C 298.406 116.671, 289.058 104.292, 276.500 96.078 L 269.500 91.500 271.795 87 C 273.943 82.787, 274.070 81.508, 273.795 66.922 C 273.518 52.271, 273.354 51.132, 271.046 47.767 C 269.696 45.800, 267.221 43.360, 265.546 42.345 C 262.648 40.590, 257.968 40.492, 169.500 40.340 C 118.350 40.252, 75.150 40.512, 73.500 40.918 M 75.235 51.014 C 71.682 52.477, 70.825 56.429, 71.177 69.717 C 71.444 79.829, 71.808 82.241, 73.286 83.717 C 74.973 85.402, 80.158 85.500, 167.500 85.500 C 254.898 85.500, 260.026 85.403, 261.714 83.714 C 263.258 82.171, 263.500 80.038, 263.500 68 C 263.500 52.163, 263.111 51.227, 256.138 50.292 L 252 49.737 252 63.668 C 252 73.171, 251.618 77.982, 250.800 78.800 C 249.226 80.374, 244.339 80.342, 243.309 78.750 C 242.864 78.063, 242.275 71.425, 242 64 L 241.500 50.500 233.750 50.208 L 226 49.916 225.985 62.208 C 225.969 75.978, 224.988 79.321, 220.824 79.807 C 216.064 80.363, 215 77.251, 215 62.777 L 215 50 207 50 L 199 50 199 63.066 C 199 70.252, 198.534 77.002, 197.965 78.066 C 197.303 79.302, 195.873 80, 194 80 C 192.127 80, 190.697 79.302, 190.035 78.066 C 189.466 77.002, 189 70.252, 189 63.066 L 189 50 181 50 L 173 50 173 62.777 C 173 76.800, 171.978 80, 167.500 80 C 163.022 80, 162 76.800, 162 62.777 L 162 50 154 50 L 146 50 146 63.066 C 146 70.252, 145.534 77.002, 144.965 78.066 C 143.568 80.675, 138.432 80.675, 137.035 78.066 C 136.466 77.002, 136 70.252, 136 63.066 L 136 50 128 50 L 120 50 119.985 62.250 C 119.969 75.976, 118.985 79.321, 114.824 79.807 C 110.064 80.363, 109 77.251, 109 62.777 L 109 50 101 50 L 93 50 93 63.066 C 93 70.252, 92.534 77.002, 91.965 78.066 C 90.761 80.316, 85.831 80.706, 84.153 78.684 C 83.517 77.918, 82.943 71.751, 82.780 63.934 L 82.500 50.500 80 50.291 C 78.625 50.177, 76.481 50.502, 75.235 51.014 M 82.500 97.100 C 56.614 102.920, 39.073 124.763, 39.015 151.250 L 39 158 167.500 158 L 296 158 295.985 151.250 C 295.947 133.782, 288.022 117.448, 274.741 107.464 C 266.842 101.526, 264.802 100.506, 255.892 98.037 C 248.759 96.061, 246.126 96.003, 167.520 96.100 C 122.959 96.156, 84.700 96.606, 82.500 97.100 M 39 228.500 L 39 289 167.500 289 L 296 289 296 228.500 L 296 168 167.500 168 L 39 168 39 228.500 M 156.500 174.163 C 147.774 175.803, 135.831 182.310, 128.823 189.242 C 118.912 199.047, 112.035 215.127, 112.035 228.500 C 112.035 241.938, 118.833 257.744, 128.902 267.714 C 150.362 288.963, 184.638 288.963, 206.098 267.714 C 216.167 257.744, 222.965 241.938, 222.965 228.500 C 222.965 226.300, 222.307 221.350, 221.502 217.500 C 215.291 187.788, 186.421 168.540, 156.500 174.163 M 160.699 184.044 C 147.105 185.691, 133.068 196.301, 126.701 209.741 C 123.653 216.177, 123.500 217.073, 123.500 228.500 C 123.500 239.837, 123.670 240.859, 126.586 247 C 133.107 260.734, 145.733 270.341, 160.799 273.033 C 179.556 276.385, 199.687 265.379, 208.414 247 C 211.330 240.859, 211.500 239.837, 211.500 228.500 C 211.500 217.073, 211.347 216.177, 208.299 209.741 C 201.358 195.088, 187.180 185.079, 171.500 183.761 C 168.750 183.530, 163.889 183.657, 160.699 184.044 M 176.145 194.081 C 162.526 195.927, 144.913 210.175, 137.431 225.399 C 129.662 241.206, 131.982 255.379, 143.281 261.143 C 146.721 262.898, 148.659 263.160, 155.437 262.784 C 166.686 262.160, 175.674 257.566, 186.091 247.115 C 196.319 236.854, 201.158 227.299, 201.739 216.220 C 202.256 206.338, 199.790 200.877, 193 196.865 C 187.757 193.767, 183.569 193.075, 176.145 194.081 M 162.283 211.371 C 159.018 213.774, 154.697 217.753, 152.682 220.213 C 147.481 226.560, 143 236.915, 143 242.586 C 143 247.133, 143.050 247.205, 145.750 246.550 C 155.798 244.112, 159.327 240.012, 161.094 228.722 C 162.460 219.990, 164.761 213.437, 167.680 209.969 C 171.221 205.760, 169.187 206.288, 162.283 211.371 M 185.643 211.107 C 176.405 213.277, 173.597 216.949, 171.397 229.735 C 169.851 238.718, 167.409 244.777, 163.733 248.750 C 157.945 255.006, 172.373 246.787, 179.249 239.911 C 186.385 232.775, 192 221.614, 192 214.566 C 192 209.626, 191.985 209.617, 185.643 211.107 M 39.187 320.250 C 39.460 337.850, 39.818 342.169, 41.268 345.396 C 42.911 349.050, 43.131 349.191, 44.809 347.673 C 45.793 346.783, 49.726 344.345, 53.549 342.255 C 60.118 338.666, 60.530 338.231, 61.051 334.350 C 61.354 332.092, 62.704 327.463, 64.051 324.064 C 72.619 302.443, 92.169 296.375, 105.548 311.185 C 110.187 316.320, 114.666 325.819, 116.087 333.537 C 116.691 336.817, 117.348 339.668, 117.549 339.873 C 117.749 340.078, 120.070 338.329, 122.707 335.985 C 125.343 333.641, 130.875 330.098, 135 328.111 C 141.564 324.951, 143.436 324.500, 150 324.500 C 155.285 324.500, 158.597 325.045, 161.214 326.347 L 164.927 328.193 169.214 324.717 C 186.515 310.686, 204.703 314.307, 210.502 332.937 L 212.500 339.358 219 340.666 C 222.575 341.385, 228.384 343.394, 231.910 345.129 C 238.117 348.183, 238.365 348.223, 239.741 346.391 C 240.523 345.351, 241.688 343.807, 242.331 342.959 C 250.038 332.798, 269.915 333.702, 286.618 344.975 C 289.083 346.639, 291.510 348, 292.011 348 C 292.513 348, 293.615 345.668, 294.461 342.818 C 295.614 338.936, 296 332.795, 296 318.318 L 296 299 167.429 299 L 38.858 299 39.187 320.250 M 87.640 318.750 C 82.560 328.831, 83.281 334.302, 91.043 344.557 C 96.405 351.642, 98.520 355.310, 100.445 360.872 L 101.678 364.432 104.522 358.966 C 106.868 354.458, 107.349 352.334, 107.265 346.843 C 107.080 334.747, 102.898 322.786, 96.821 316.979 C 92.398 312.753, 90.475 313.124, 87.640 318.750 M 72.040 332.500 C 69.865 339.455, 69.589 353.693, 71.489 361 C 72.418 364.575, 73.549 367.950, 74.001 368.500 C 74.472 369.074, 78.482 369.362, 83.412 369.177 L 92.001 368.853 91.360 366.177 C 90.401 362.169, 88.201 358.082, 83.904 352.320 C 78.720 345.369, 75.889 339.753, 74.470 333.607 L 73.291 328.500 72.040 332.500 M 193 330.739 C 182.121 337.852, 180.522 342.664, 182.947 361 C 183.492 365.125, 183.952 368.837, 183.969 369.250 C 183.986 369.663, 185.176 370, 186.614 370 C 189.146 370, 189.206 369.860, 188.549 365.478 C 187.205 356.518, 192.343 346.019, 200.282 341.500 C 201.753 340.663, 201.879 339.950, 201.054 337.127 C 199.951 333.349, 197.335 328.973, 196.227 329.052 C 195.827 329.081, 194.375 329.840, 193 330.739 M 171.965 335.542 C 171.125 336.555, 171.023 337.423, 171.670 338.070 C 172.316 338.716, 173.050 338.186, 173.806 336.527 C 175.080 333.731, 173.964 333.134, 171.965 335.542 M 132.385 341.166 C 126.701 345.433, 121.745 350.590, 118.129 356 C 113.777 362.509, 110.890 368.557, 111.731 369.398 C 112.293 369.959, 128.968 370.299, 129.027 369.750 C 129.042 369.613, 129.464 365.263, 129.965 360.085 C 130.651 352.987, 131.587 349.232, 133.767 344.835 C 135.358 341.626, 136.346 339, 135.964 339 C 135.582 339, 133.972 339.975, 132.385 341.166 M 150.929 341.750 C 143.717 345.403, 141.044 350.180, 140.106 361.095 C 139.728 365.490, 139.625 369.292, 139.876 369.543 C 140.128 369.794, 143.376 370, 147.094 370 C 153.172 370, 154.060 369.739, 155.887 367.417 C 160.620 361.400, 163.872 348.171, 162.007 342.521 C 160.554 338.120, 158.393 337.970, 150.929 341.750 M 253.656 346.649 C 252.127 347.092, 251.928 347.801, 252.489 350.795 C 254.057 359.151, 260.024 366.351, 266.368 367.541 C 270.349 368.288, 276.987 365.452, 282.586 360.612 L 286.344 357.364 282.880 354.722 C 274.680 348.468, 260.703 344.607, 253.656 346.649 M 204.832 350.968 C 203.438 351.837, 203.329 352.624, 204.169 355.754 C 205.515 360.770, 209.614 367.723, 211.966 368.982 C 213.884 370.008, 237.217 370.449, 238.189 369.477 C 238.477 369.190, 238.249 366.930, 237.683 364.456 C 236.809 360.639, 235.961 359.538, 232.077 357.179 C 229.560 355.650, 225.716 353.568, 223.535 352.551 C 218.970 350.422, 207.294 349.434, 204.832 350.968 M 53.612 354.133 L 48.882 357.267 51.392 359.883 C 53.952 362.553, 60.733 366.654, 61.357 365.911 C 61.936 365.221, 59.676 351, 58.987 351 C 58.633 351, 56.214 352.410, 53.612 354.133 M 169.744 362.121 C 168.901 364.529, 167.878 367.321, 167.471 368.323 C 166.828 369.905, 167.177 370.104, 170.101 369.823 C 173.438 369.503, 173.468 369.455, 173.143 365 C 172.632 358.001, 171.516 357.056, 169.744 362.121" stroke="currentColor" fill="currentColor" fill-rule="evenodd"/>
</svg>