<svg xmlns="http://www.w3.org/2000/svg" width="100%" height="100%" class="w-full h-full" viewBox="0 0 173 305" stroke="currentColor" fill="currentColor"  fill-rule="evenodd" version="1.1">
	<path d="M 76 5.604 C 56.709 7.210, 39.672 10.084, 34.941 12.531 C 31.068 14.533, 27.804 19.212, 24.630 27.310 C 21.207 36.043, 16 54.559, 16 57.999 C 16 59.583, 14.940 61.628, 13.368 63.076 C 11.921 64.409, 9.905 67.300, 8.890 69.500 C 7.133 73.307, 7.043 78.522, 7.022 177.316 C 7.006 252.292, 7.313 281.738, 8.125 283.316 C 10.477 287.883, 13.606 290.104, 20.940 292.414 C 37.602 297.662, 52.090 300.372, 72.611 302.081 C 96.895 304.104, 126.307 300.525, 152.060 292.414 C 159.394 290.104, 162.523 287.883, 164.875 283.316 C 165.687 281.738, 165.994 252.292, 165.978 177.316 C 165.957 77.889, 165.877 73.331, 164.079 69.500 C 163.047 67.300, 161.032 64.282, 159.601 62.794 C 158.171 61.305, 157 59.166, 157 58.039 C 157 54.818, 152.128 37.305, 148.783 28.500 C 145.313 19.366, 142.139 14.640, 138.059 12.531 C 130.214 8.474, 92.326 4.245, 76 5.604 M 17.139 64.870 C 11.407 70.225, 10.936 72.898, 11.232 98.375 L 11.500 121.419 15 122.170 C 38.519 127.218, 59.588 129.326, 86.500 129.323 C 112.290 129.320, 131.613 127.534, 153 123.175 L 161.500 121.443 161.768 97.912 C 162.028 75.007, 161.974 74.265, 159.729 70.020 C 155.555 62.127, 155.019 61.984, 135.500 63.535 C 106.931 65.806, 52.930 65.335, 24.799 62.568 C 20.705 62.166, 19.716 62.463, 17.139 64.870 M 86.250 149.466 C 75.314 151.930, 67.394 156.556, 57.982 165.975 C 45.713 178.254, 40 190.221, 40 203.644 C 40 229.500, 65.587 239.656, 91.994 224.281 C 101.843 218.546, 111.703 208.075, 116.794 197.945 C 125.731 180.161, 124.680 165.293, 113.795 155.506 C 106.576 149.015, 97.289 146.978, 86.250 149.466 M 80.575 158.651 C 69.643 162.006, 59.377 171.209, 54.047 182.431 C 47.922 195.323, 45.382 207.652, 48.630 208.716 C 49.251 208.920, 50.928 207.093, 52.355 204.656 C 57.603 195.703, 66.919 188.666, 78 185.284 C 85.924 182.866, 92.833 178.008, 98.793 170.663 C 104.790 163.271, 105.565 159.546, 101.435 157.975 C 97.668 156.543, 86.236 156.913, 80.575 158.651 M 110.117 175.486 C 105.703 183.805, 95.368 191.652, 84.500 194.935 C 82.300 195.600, 78.538 197.108, 76.139 198.286 C 71.411 200.609, 61.835 210.510, 59.230 215.770 C 57.766 218.726, 57.760 219.188, 59.165 220.593 C 61.606 223.035, 67.543 223.914, 74.723 222.897 C 86.412 221.242, 96.084 215.544, 103.195 206.125 C 110.244 196.789, 116.871 178.421, 114.982 173.453 C 113.673 170.009, 112.837 170.358, 110.117 175.486 M 11 259.577 L 11 281.154 13.752 283.906 C 17.281 287.435, 29.577 291.282, 49.827 295.192 C 60.016 297.160, 64.679 297.447, 86.500 297.447 C 108.321 297.447, 112.984 297.160, 123.173 295.192 C 143.423 291.282, 155.719 287.435, 159.248 283.906 L 162 281.154 162 259.577 C 162 247.710, 161.662 238, 161.250 238.001 C 160.838 238.001, 157.303 238.669, 153.396 239.484 C 112.082 248.103, 61.139 248.092, 19.500 239.454 C 15.650 238.655, 12.162 238.001, 11.750 238.001 C 11.338 238, 11 247.710, 11 259.577 M 66.500 271.970 C 54.619 273.395, 29.196 279.530, 30.358 280.691 C 30.572 280.906, 33.842 280.413, 37.624 279.596 C 70.020 272.599, 100.852 272.874, 140.845 280.517 C 148.044 281.893, 131.299 276.717, 121.157 274.432 C 111.463 272.247, 106.470 271.748, 91.500 271.467 C 81.600 271.282, 70.350 271.508, 66.500 271.970" />
</svg>