<svg xmlns="http://www.w3.org/2000/svg" width="86" height="86" fill="#8b5cf6" fill-rule="evenodd" style="margin-bottom:8px;display:block;margin-left:auto;margin-right:auto" viewBox="0 0 299 223">
  <path d="m173.788 25.167-7.711 8.127-2.814-3.012c-1.547-1.656-4.827-4.022-7.288-5.257s-5.69-3.383-7.175-4.774c-2.224-2.083-3.344-2.424-6.356-1.936-7.989 1.297-10.91 5.715-12.043 18.214-.481 5.307-1.071 7.471-2.039 7.471-1.64 0-1.762-1.2-.275-2.687 1.676-1.676-.508-2.483-3.568-1.32-4.835 1.838-5.513 1.385-5.599-3.743-.044-2.612-.832-7-1.75-9.75-1.554-4.654-2.016-5.118-6.67-6.706-6.253-2.134-20.407-2.328-26.917-.369-2.604.784-6.163 1.23-7.909.993-1.745-.238-11.306-.853-21.246-1.367-24.197-1.25-39.949.251-42.454 4.046-.29.438-.657 11.959-.816 25.6l-.29 24.803 4.99 10.628c2.744 5.846 6.395 12.229 8.112 14.185 4.017 4.575 10.545 7.115 16.548 6.438 3.966-.447 4.472-.294 3.994 1.211-.885 2.789 3 6.678 7.905 7.913 7.999 2.014 19.945 1.131 27.944-2.066 2.668-1.066 2.828-1.441 2.366-5.54-.479-4.248-.407-4.388 2.139-4.172 1.449.122 5.559-.116 9.134-.53l6.5-.753 5.168-9.157c7.544-13.366 8.485-16.105 9.075-26.407l.53-9.25 8.113.014c13.093.022 12.851-.158 12.055 8.967-.714 8.191.08 11.157 3.473 12.973 1.474.789 2.65.38 5.566-1.938 11.555-9.183 30.351-9.403 37.402-.439 1.987 2.526 2.266 2.588 6.845 1.512 7.631-1.792 19.295-3.013 39.205-4.103 34.764-1.903 50.123-4.502 56.83-9.618 3.98-3.036 7.184-9.357 7.216-14.236.017-2.58-.864-4.253-3.768-7.157-4.559-4.56-12.434-7.174-28.71-9.533-6.05-.876-15.725-2.928-21.5-4.56-6.935-1.959-12.336-2.887-15.908-2.734-4.79.205-5.502-.024-6.234-2.002-.683-1.846-1.164-2.053-2.776-1.19-2.778 1.487-8.362 1.291-10.638-.373-1.071-.784-2.387-1.049-2.941-.594-.552.454-2.803.97-5.003 1.147-3.489.281-3.992.06-3.939-1.732.047-1.618-.43-1.961-2.25-1.613-1.299.249-2.311-.047-2.311-.674 0-.615-1.012-1.108-2.25-1.097-1.502.014-4.815 2.723-9.962 8.147M92 34.127c-5.775.346-19.188.683-29.807.75-10.619.068-22.475.646-26.346 1.285l-7.039 1.163.377 17.087c.359 16.281.509 17.36 3.171 22.843 1.537 3.165 3.737 6.259 4.889 6.876 1.479.792 7.78.91 21.417.401 14.336-.535 20.593-.395 24.248.542 9.556 2.449 15.337-2.077 18.614-14.574 1.858-7.089 3.085-29.706 1.843-34l-.867-3zm96.043 3.812c-4.337 6.091-20.405 10.935-32.186 9.704L150 47.031v4.101c0 3.97.088 4.08 2.75 3.431 1.512-.368 6.364-.922 10.781-1.23 9.543-.666 18.264 1.232 26.176 5.697 4.308 2.431 5.678 2.774 7.823 1.959 4.142-1.575 8.796-1.282 8.108.511-.316.825-.139 1.5.393 1.5a.974.974 0 0 0 .969-.974c0-2.2 6.625-4.191 16.599-4.989 5.75-.46 11.131-1.398 11.957-2.084 1.23-1.02 1.91-.864 3.746.861 2.008 1.886 2.606 1.979 5.72.888 1.913-.67 3.949-1.522 4.526-1.894.576-.372 1.701-.263 2.5.243 3.355 2.122 26.952.595 26.952-1.744 0-1.966-5.105-6.917-8.908-8.638-3.93-1.779-7.402-2.175-24.092-2.745-13.938-.476-22.352-1.273-29.5-2.793C198.188 35.237 196.867 35 193.492 35c-2.572 0-3.845.687-5.449 2.939M58.5 145.569c-1.65.857-4.188 2.691-5.64 4.076-1.681 1.604-2.884 2.126-3.309 1.437-1.346-2.177-2.77-1.03-2.342 1.885.383 2.613-.094 3.301-3.984 5.75-4.733 2.98-7.587 7.177-6.61 9.722.362.944-.272 2.272-1.595 3.344-1.893 1.533-2.196 2.771-2.196 8.965 0 10.584 2.127 16.095 9.104 23.587 6.969 7.482 18.173 10.816 29.295 8.717 6.244-1.178 6.366-1.265 11.691-8.371 2.96-3.95 6.287-9.206 7.393-11.681 2.394-5.353 2.741-14.035.758-19-4.389-10.992-22.739-30.049-28.88-29.994-.377.004-2.035.707-3.685 1.563m.709 22.997c-2.756 1.931-5.735 7.714-6.49 12.598-.433 2.809-.126 4.063 1.316 5.368 1.036.937 2.622 3.929 3.525 6.649 1.666 5.015 3.942 6.819 8.604 6.819 5.97 0 12.842-6.565 14.306-13.666 1.053-5.11-1.21-11.389-5.616-15.584-3.414-3.251-4.568-3.75-8.674-3.75-2.679 0-5.706.68-6.971 1.566"/>
</svg>